# xmcd
#
# Track frame offsets: 
#        150
#        16650
#        34503
#        57078
#        75828
#        88653
#        112428
#        127653
#        139654
#        160729
#
# Disc length: 2371 seconds
#
# Revision: 0
# Processed by: cddbd v1.5.2PL0 Copyright (c) Steve Scherf et al.
# Submitted via: ExactAudioCopy v1.2
#
DISCID=6b09410a
DTITLE=Aj Crawdaddy - Slow Cookin'
DYEAR=2017
DGENRE=Blues
TTITLE0=Aj's Shuffle
TTITLE1=Drinkin' All by Myself
TTITLE2=Talk to Me Baby
TTITLE3=Too Many Drivers at the Wheel
TTITLE4=Someday
TTITLE5=Cold Cold Feeling
TTITLE6=Fine Lookin' Woman
TTITLE7=She Don't Want Me No More
TTITLE8=Hard Luck Lover
TTITLE9=Slow Cookin'
EXTD=
EXTT0=
EXTT1=
EXTT2=
EXTT3=
EXTT4=
EXTT5=
EXTT6=
EXTT7=
EXTT8=
EXTT9=
PLAYORDER=
